<svg width="41" height="40" viewBox="0 0 41 40" fill="none" xmlns="http://www.w3.org/2000/svg">
<rect x="1" y="0.5" width="39" height="39" rx="19.5" fill="url(#paint0_linear_118_2880)"/>
<rect x="1" y="0.5" width="39" height="39" rx="19.5" stroke="#E5E5E5"/>
<path d="M29.5 19.5C29.5034 20.8199 29.1951 22.1219 28.6 23.3C27.8944 24.7118 26.8097 25.8992 25.4674 26.7293C24.1251 27.5594 22.5782 27.9994 21 28C19.6801 28.0035 18.3781 27.6951 17.2 27.1L11.5 29L13.4 23.3C12.8049 22.1219 12.4966 20.8199 12.5 19.5C12.5006 17.9218 12.9406 16.3749 13.7707 15.0326C14.6008 13.6903 15.7883 12.6056 17.2 11.9C18.3781 11.305 19.6801 10.9966 21 11H21.5C23.5843 11.115 25.553 11.9948 27.0291 13.4709C28.5052 14.947 29.385 16.9157 29.5 19V19.5Z" stroke="white" stroke-linecap="round" stroke-linejoin="round"/>
<path d="M20.5 20.5C20.7762 20.5 21 20.2761 21 20C21 19.7239 20.7762 19.5 20.5 19.5C20.2239 19.5 20 19.7239 20 20C20 20.2761 20.2239 20.5 20.5 20.5Z" fill="white" stroke="white" stroke-linecap="round" stroke-linejoin="round"/>
<path d="M24 20.5C24.2761 20.5 24.5 20.2761 24.5 20C24.5 19.7239 24.2761 19.5 24 19.5C23.7239 19.5 23.5 19.7239 23.5 20C23.5 20.2761 23.7239 20.5 24 20.5Z" fill="white" stroke="white" stroke-linecap="round" stroke-linejoin="round"/>
<path d="M17 20.5C17.2761 20.5 17.5 20.2761 17.5 20C17.5 19.7239 17.2761 19.5 17 19.5C16.7238 19.5 16.5 19.7239 16.5 20C16.5 20.2761 16.7238 20.5 17 20.5Z" fill="white" stroke="white" stroke-linecap="round" stroke-linejoin="round"/>
<defs>
<linearGradient id="paint0_linear_118_2880" x1="16.1481" y1="38.0303" x2="48.5002" y2="21.1707" gradientUnits="userSpaceOnUse">
<stop stop-color="#016DEA"/>
<stop offset="1" stop-color="#FA0101"/>
</linearGradient>
</defs>
</svg>
