<svg width="41" height="40" viewBox="0 0 41 40" fill="none" xmlns="http://www.w3.org/2000/svg">
<rect x="1" y="0.5" width="39" height="39" rx="19.5" fill="url(#paint0_linear_118_2864)"/>
<rect x="1" y="0.5" width="39" height="39" rx="19.5" stroke="#E5E5E5"/>
<g clip-path="url(#clip0_118_2864)">
<path d="M10.6797 8.08916C9.66718 8.37979 8.8328 9.22822 8.57499 10.2313C8.47655 10.611 8.47655 11.3892 8.57499 11.7688C8.84218 12.8001 9.73749 13.6907 10.7547 13.9298C11.1391 14.0188 11.8609 14.0188 12.2453 13.9298C13.0234 13.747 13.7875 13.147 14.1578 12.4298C14.4156 11.9282 14.5 11.5813 14.5 11.0001C14.5 10.4188 14.4156 10.072 14.1578 9.57041C13.7922 8.8626 13.0515 8.27666 12.2687 8.0751C11.875 7.97197 11.0547 7.98135 10.6797 8.08916ZM12.2031 9.16729C12.9906 9.47197 13.5156 10.2829 13.4594 11.1079C13.3984 11.9563 12.8594 12.636 12.0484 12.8845C11.2562 13.1235 10.375 12.8095 9.89218 12.1251C9.13749 11.0423 9.64843 9.5376 10.9141 9.1251C11.2797 9.00322 11.8328 9.02197 12.2031 9.16729Z" fill="white"/>
<path d="M17.4859 8.06562C17.0312 8.22969 16.675 8.61406 16.5437 9.08281C16.4828 9.29375 16.4688 9.64062 16.4688 11C16.4688 12.8562 16.4875 13.0062 16.7781 13.4047C16.9562 13.6484 17.2797 13.8781 17.5469 13.9531C17.65 13.9812 20.2094 14 24.5172 14C31.2766 14 31.3281 14 31.5812 13.9016C31.8953 13.7844 32.2047 13.4984 32.3594 13.1797L32.4766 12.9453L32.4906 11.0656C32.5047 9.24687 32.5 9.17656 32.4016 8.91875C32.2703 8.56719 31.9375 8.22969 31.5859 8.09844C31.3234 8 31.3047 8 24.4937 8C18.8734 8.00469 17.6312 8.01406 17.4859 8.06562ZM31.2297 9.09687C31.3 9.13437 31.3797 9.21875 31.4125 9.28906C31.4922 9.4625 31.4922 12.5375 31.4125 12.7109C31.2906 12.9828 31.675 12.9688 24.4703 12.9688C17.8609 12.9688 17.8422 12.9688 17.7203 12.875C17.65 12.8187 17.575 12.6969 17.5469 12.6031C17.5187 12.5 17.5 11.8344 17.5 11C17.5 10.1656 17.5187 9.5 17.5469 9.39687C17.575 9.30312 17.65 9.18125 17.7203 9.125C17.8422 9.03125 17.8609 9.03125 24.4703 9.03125C30.1141 9.03125 31.1172 9.04062 31.2297 9.09687Z" fill="white"/>
<path d="M9.55937 16.0438C9.11875 16.1797 8.79531 16.4704 8.59844 16.9063C8.50469 17.1079 8.5 17.2063 8.5 19.4704C8.5 21.7344 8.50469 21.8329 8.59844 22.0813C8.71562 22.3954 9.00156 22.7047 9.32031 22.8594L9.55469 22.9766L13.9375 22.9907C18.9625 23.0047 18.5875 23.0329 19.0516 22.5782C19.2437 22.3907 19.3422 22.2454 19.4172 22.0438C19.5156 21.7719 19.5203 21.7251 19.5062 19.4188C19.4922 17.0704 19.4922 17.0704 19.3844 16.8501C19.2344 16.5454 18.9437 16.2641 18.6344 16.1188L18.3672 15.9922L14.0781 15.9829C10.3422 15.9735 9.76094 15.9829 9.55937 16.0438ZM18.2406 17.0938C18.4844 17.2579 18.4891 17.2954 18.475 19.5782L18.4609 21.6969L18.3062 21.8329L18.1562 21.9688H14.0266C9.54531 21.9688 9.70937 21.9782 9.5875 21.711C9.54531 21.6219 9.53125 21.0126 9.53125 19.4657C9.53125 17.3891 9.53125 17.3376 9.62969 17.2157C9.68125 17.1501 9.79375 17.0751 9.87344 17.0516C9.9625 17.0235 11.6828 17.0094 14.0781 17.0141C17.5844 17.0235 18.1469 17.0329 18.2406 17.0938Z" fill="white"/>
<path d="M21.7328 16.0578C21.6531 16.1094 21.5594 16.1938 21.5359 16.2453C21.4234 16.4563 21.5219 16.85 21.7141 16.9531C21.775 16.9859 23.5328 17 27.0156 17H32.2281L32.3641 16.8641C32.4766 16.7469 32.5 16.6859 32.5 16.4984C32.5 16.3016 32.4766 16.2453 32.3547 16.1281L32.2141 15.9922L27.0484 15.9781C22 15.9688 21.8781 15.9688 21.7328 16.0578Z" fill="white"/>
<path d="M21.7328 19.0578C21.6531 19.1094 21.5594 19.1938 21.5359 19.2453C21.4234 19.4563 21.5219 19.85 21.7141 19.9531C21.775 19.9859 23.5328 20 27.0156 20H32.2281L32.3641 19.8641C32.4766 19.7469 32.5 19.6859 32.5 19.4984C32.5 19.3016 32.4766 19.2453 32.3547 19.1281L32.2141 18.9922L27.0484 18.9781C22 18.9688 21.8781 18.9688 21.7328 19.0578Z" fill="white"/>
<path d="M21.7328 22.0578C21.6531 22.1094 21.5594 22.1938 21.5359 22.2453C21.4234 22.4563 21.5219 22.85 21.7141 22.9531C21.775 22.9859 23.5328 23 27.0156 23H32.2281L32.3641 22.8641C32.4766 22.7469 32.5 22.6859 32.5 22.4984C32.5 22.3016 32.4766 22.2453 32.3547 22.1281L32.2141 21.9922L27.0484 21.9781C22 21.9688 21.8781 21.9688 21.7328 22.0578Z" fill="white"/>
<path d="M9.55937 25.0438C9.11875 25.1797 8.79531 25.4704 8.59844 25.9063C8.50469 26.1079 8.5 26.2063 8.5 28.4704C8.5 30.7344 8.50469 30.8329 8.59844 31.0813C8.71562 31.3954 9.00156 31.7047 9.32031 31.8594L9.55469 31.9766L13.9375 31.9907C18.9625 32.0047 18.5875 32.0329 19.0516 31.5782C19.2437 31.3907 19.3422 31.2454 19.4172 31.0438C19.5156 30.7719 19.5203 30.7251 19.5062 28.4188C19.4922 26.0704 19.4922 26.0704 19.3844 25.8501C19.2344 25.5454 18.9437 25.2641 18.6344 25.1188L18.3672 24.9922L14.0781 24.9829C10.3422 24.9735 9.76094 24.9829 9.55937 25.0438ZM18.2406 26.0938C18.4844 26.2579 18.4891 26.2954 18.475 28.5782L18.4609 30.6969L18.3062 30.8329L18.1562 30.9688H14.0266C9.54531 30.9688 9.70937 30.9782 9.5875 30.711C9.54531 30.6219 9.53125 30.0126 9.53125 28.4657C9.53125 26.3891 9.53125 26.3376 9.62969 26.2157C9.68125 26.1501 9.79375 26.0751 9.87344 26.0516C9.9625 26.0235 11.6828 26.0094 14.0781 26.0141C17.5844 26.0235 18.1469 26.0329 18.2406 26.0938Z" fill="white"/>
<path d="M21.7328 25.0578C21.6531 25.1094 21.5594 25.1938 21.5359 25.2453C21.4234 25.4563 21.5219 25.85 21.7141 25.9531C21.775 25.9859 23.5328 26 27.0156 26H32.2281L32.3641 25.8641C32.4766 25.7469 32.5 25.6859 32.5 25.4984C32.5 25.3016 32.4766 25.2453 32.3547 25.1281L32.2141 24.9922L27.0484 24.9781C22 24.9688 21.8781 24.9688 21.7328 25.0578Z" fill="white"/>
<path d="M21.7328 28.0578C21.6531 28.1094 21.5594 28.1938 21.5359 28.2453C21.4234 28.4563 21.5219 28.85 21.7141 28.9531C21.775 28.9859 23.5328 29 27.0156 29H32.2281L32.3641 28.8641C32.4766 28.7469 32.5 28.6859 32.5 28.4984C32.5 28.3016 32.4766 28.2453 32.3547 28.1281L32.2141 27.9922L27.0484 27.9781C22 27.9688 21.8781 27.9688 21.7328 28.0578Z" fill="white"/>
<path d="M21.7328 31.0578C21.6531 31.1094 21.5594 31.1938 21.5359 31.2453C21.4234 31.4563 21.5219 31.85 21.7141 31.9531C21.775 31.9859 23.5328 32 27.0156 32H32.2281L32.3641 31.8641C32.4766 31.7469 32.5 31.6859 32.5 31.4984C32.5 31.3016 32.4766 31.2453 32.3547 31.1281L32.2141 30.9922L27.0484 30.9781C22 30.9688 21.8781 30.9688 21.7328 31.0578Z" fill="white"/>
</g>
<defs>
<linearGradient id="paint0_linear_118_2864" x1="40.5" y1="20" x2="0.5" y2="20" gradientUnits="userSpaceOnUse">
<stop stop-color="#5D0076"/>
<stop offset="1" stop-color="#9D01C8"/>
</linearGradient>
<clipPath id="clip0_118_2864">
<rect width="24" height="24" fill="white" transform="translate(8.5 8)"/>
</clipPath>
</defs>
</svg>
