<svg width="41" height="40" viewBox="0 0 41 40" fill="none" xmlns="http://www.w3.org/2000/svg">
<rect x="1" y="0.5" width="39" height="39" rx="19.5" fill="url(#paint0_linear_118_2924)"/>
<rect x="1" y="0.5" width="39" height="39" rx="19.5" stroke="#E5E5E5"/>
<g clip-path="url(#clip0_118_2924)">
<path d="M19.7247 8.05566C17.5872 8.38848 15.8997 9.9166 15.3325 12.0307C15.2107 12.4947 15.1638 13.6619 15.2482 14.1869C15.4169 15.2463 15.97 16.3197 16.7435 17.0932L17.0622 17.4119L16.8232 17.4963C16.0685 17.7588 14.9575 18.3963 14.1654 19.0291C13.4154 19.6291 12.3044 20.8666 12.0325 21.4104C11.9529 21.5744 11.9388 21.9869 12.0044 22.1697C12.1357 22.5119 12.5247 22.7697 12.9044 22.7744C13.2607 22.7744 13.495 22.6197 13.856 22.1416C14.2919 21.5604 14.7654 21.0494 15.2154 20.6697C17.2919 18.9307 20.0107 18.3354 22.631 19.0479C24.3654 19.5166 25.9169 20.5994 27.0325 22.1088C27.4122 22.6197 27.5997 22.7416 27.9982 22.7416C28.3497 22.7416 28.6169 22.601 28.7997 22.315C28.931 22.1135 28.9404 22.0666 28.9263 21.7572C28.9122 21.4479 28.8935 21.401 28.6825 21.0916C27.6044 19.5119 25.7622 18.0822 23.9997 17.4635C23.9294 17.4354 23.9716 17.3744 24.2435 17.1025C24.9982 16.3479 25.5279 15.3494 25.7247 14.3229C25.8185 13.84 25.8185 12.8182 25.7247 12.3354C25.3357 10.2916 23.8169 8.69316 21.7685 8.16348C21.2575 8.03691 20.2169 7.98066 19.7247 8.05566ZM21.1263 9.99629C22.3966 10.24 23.4607 11.2432 23.7794 12.49C23.906 12.9775 23.906 13.6807 23.7794 14.1682C23.4607 15.415 22.3966 16.4182 21.1263 16.6619C19.3919 16.99 17.6529 15.8838 17.2169 14.1682C17.0904 13.6807 17.0904 12.9775 17.2169 12.49C17.6529 10.7744 19.3919 9.66816 21.1263 9.99629Z" fill="white"/>
<path d="M20.191 21.1721C20.116 21.2237 20.0269 21.2893 19.9988 21.3268C19.966 21.3643 19.8113 21.7909 19.6519 22.283C19.4925 22.7705 19.3425 23.2112 19.3191 23.2534C19.2254 23.4315 19.0941 23.4549 17.955 23.4784L16.8394 23.5018L16.6894 23.6518C16.5629 23.7784 16.5394 23.844 16.5207 24.083C16.5066 24.294 16.5207 24.3971 16.5769 24.4815C16.6144 24.5471 16.98 24.833 17.3879 25.1284C17.7957 25.419 18.1754 25.7049 18.2316 25.7659C18.4238 25.9768 18.4144 26.0799 18.0863 27.0409C17.8941 27.594 17.7769 28.0205 17.7769 28.1424C17.7769 28.494 18.091 28.7565 18.4613 28.7143C18.6207 28.7002 18.7988 28.5924 19.4035 28.1565C20.2707 27.5284 20.3035 27.5096 20.4957 27.5096C20.6879 27.5096 20.7207 27.5284 21.5879 28.1565C22.1925 28.5924 22.3707 28.7002 22.53 28.7143C22.9004 28.7565 23.2144 28.494 23.2144 28.1424C23.2144 28.0205 23.0925 27.5893 22.9097 27.0409C22.591 26.1034 22.5722 25.9955 22.7363 25.794C22.7785 25.7377 23.1582 25.4424 23.58 25.1424C24.0019 24.8377 24.3769 24.5424 24.4191 24.4815C24.4707 24.3971 24.4847 24.2893 24.4707 24.083C24.4519 23.844 24.4285 23.7784 24.3019 23.6518L24.1519 23.5018L23.0363 23.4784C22.0894 23.4596 21.9019 23.4409 21.7988 23.3752C21.6957 23.3096 21.6207 23.1315 21.3629 22.344C21.1894 21.819 21.0113 21.3549 20.9691 21.3034C20.7769 21.083 20.4347 21.0268 20.191 21.1721Z" fill="white"/>
<path d="M12.1754 24.4534C12.1004 24.5049 12.0113 24.5705 11.9832 24.608C11.9504 24.6455 11.7957 25.0721 11.6363 25.5643C11.477 26.0518 11.327 26.4924 11.3035 26.5346C11.2098 26.7127 11.0785 26.7362 9.93946 26.7596L8.82384 26.783L8.67384 26.933C8.54728 27.0596 8.52384 27.1252 8.50509 27.3643C8.49103 27.5705 8.50509 27.6784 8.55665 27.758C8.59415 27.819 8.9879 28.1284 9.42853 28.4471C10.1879 28.9955 10.3707 29.1737 10.3707 29.3846C10.3707 29.4174 10.2348 29.844 10.066 30.3315C9.87853 30.8799 9.76134 31.3018 9.76134 31.4237C9.76134 31.7752 10.0754 32.0377 10.4457 31.9955C10.6051 31.9815 10.7832 31.8737 11.3879 31.4377C12.2551 30.8096 12.2879 30.7909 12.4801 30.7909C12.6723 30.7909 12.7051 30.8096 13.5723 31.4377C14.177 31.8737 14.3551 31.9815 14.5145 31.9955C14.8848 32.0377 15.1988 31.7752 15.1988 31.4237C15.1988 31.3018 15.077 30.8705 14.8942 30.3221C14.566 29.3565 14.552 29.2534 14.7442 29.0471C14.8004 28.9862 15.1801 28.7002 15.5879 28.4096C15.9957 28.1143 16.3613 27.8284 16.3988 27.7627C16.4551 27.6784 16.4692 27.5752 16.4551 27.3643C16.4363 27.1252 16.4129 27.0596 16.2863 26.933L16.1363 26.783L15.0207 26.7596C14.0738 26.7409 13.8863 26.7221 13.7832 26.6565C13.6801 26.5909 13.6051 26.4127 13.3473 25.6252C13.1738 25.1002 12.9957 24.6362 12.9535 24.5846C12.7613 24.3643 12.4192 24.308 12.1754 24.4534Z" fill="white"/>
<path d="M28.2067 24.4534C28.1317 24.5049 28.0426 24.5705 28.0145 24.608C27.9817 24.6455 27.827 25.0721 27.6676 25.5643C27.5082 26.0518 27.3582 26.4924 27.3348 26.5346C27.2411 26.7127 27.1098 26.7362 25.9707 26.7596L24.8551 26.783L24.7051 26.933C24.5786 27.0596 24.5551 27.1252 24.5364 27.3643C24.5223 27.5705 24.5364 27.6784 24.5879 27.758C24.6254 27.819 25.0192 28.1284 25.4598 28.4471C26.2192 28.9955 26.402 29.1737 26.402 29.3846C26.402 29.4174 26.2661 29.844 26.0973 30.3315C25.9098 30.8799 25.7926 31.3018 25.7926 31.4237C25.7926 31.7752 26.1067 32.0377 26.477 31.9955C26.6364 31.9815 26.8145 31.8737 27.4192 31.4377C28.2864 30.8096 28.3192 30.7909 28.5114 30.7909C28.7036 30.7909 28.7364 30.8096 29.6036 31.4377C30.2082 31.8737 30.3864 31.9815 30.5457 31.9955C30.9161 32.0377 31.2301 31.7752 31.2301 31.4237C31.2301 31.3018 31.1082 30.8705 30.9254 30.3221C30.5973 29.3565 30.5832 29.2534 30.7754 29.0471C30.8317 28.9862 31.2114 28.7002 31.6192 28.4096C32.027 28.1143 32.3926 27.8284 32.4301 27.7627C32.4864 27.6784 32.5004 27.5752 32.4864 27.3643C32.4676 27.1252 32.4442 27.0596 32.3176 26.933L32.1676 26.783L31.052 26.7596C30.1051 26.7409 29.9176 26.7221 29.8145 26.6565C29.7114 26.5909 29.6364 26.4127 29.3786 25.6252C29.2051 25.1002 29.027 24.6362 28.9848 24.5846C28.7926 24.3643 28.4504 24.308 28.2067 24.4534Z" fill="white"/>
</g>
<defs>
<linearGradient id="paint0_linear_118_2924" x1="40.5" y1="20" x2="0.5" y2="20" gradientUnits="userSpaceOnUse">
<stop stop-color="#5D0076"/>
<stop offset="1" stop-color="#9D01C8"/>
</linearGradient>
<clipPath id="clip0_118_2924">
<rect width="24" height="24" fill="white" transform="translate(8.5 8)"/>
</clipPath>
</defs>
</svg>
