<svg width="41" height="40" viewBox="0 0 41 40" fill="none" xmlns="http://www.w3.org/2000/svg">
<rect x="1" y="0.5" width="39" height="39" rx="19.5" fill="url(#paint0_linear_118_2888)"/>
<rect x="1" y="0.5" width="39" height="39" rx="19.5" stroke="#E5E5E5"/>
<g clip-path="url(#clip0_118_2888)">
<path d="M19.3984 8.07969C18.9813 8.3 18.8781 8.53906 18.8406 9.38281C18.8266 9.71562 18.7797 10.1937 18.7422 10.4375C18.6531 10.9812 18.4234 11.8719 18.3063 12.1391C18.1891 12.3922 17.9547 12.7109 17.8141 12.8047C17.7109 12.8703 17.6875 12.8656 17.4719 12.7484L17.2422 12.6172L16.1594 12.6031C15.4703 12.5937 15.0016 12.6078 14.8797 12.6406C14.6031 12.7156 14.3125 12.9594 14.1625 13.2453L14.0312 13.4937V15.6359V17.7781L14.1531 18.0219C14.2188 18.1578 14.35 18.3266 14.4438 18.4062C14.7484 18.6547 14.9266 18.6875 16.0422 18.6875C16.6 18.6875 17.1344 18.6641 17.2281 18.6406C17.3266 18.6125 17.4953 18.5187 17.6125 18.4297C17.8141 18.2797 17.8234 18.275 17.8984 18.3594C17.9406 18.4062 18.0859 18.4953 18.2172 18.5562L18.4609 18.6641H21.2734C23.9734 18.6641 24.0953 18.6594 24.2734 18.5703C24.5359 18.4437 24.7938 18.1578 24.8781 17.9047C24.9672 17.6469 24.9719 17.2203 24.8922 17.0281C24.8359 16.8969 24.8406 16.8781 25.0328 16.6859C25.3469 16.3625 25.4453 15.9312 25.3094 15.4766C25.2391 15.2562 25.2391 15.2562 25.375 15.1437C25.6047 14.9469 25.75 14.5906 25.75 14.225C25.75 13.9203 25.6281 13.5312 25.5109 13.4562C25.4875 13.4422 25.5063 13.3766 25.5531 13.3062C25.7078 13.0766 25.7547 12.9078 25.7547 12.6031C25.7547 12.0641 25.4453 11.6141 24.9578 11.4453C24.7891 11.3891 24.4703 11.375 23.2328 11.375H21.7188V10.7516C21.7188 10.0156 21.6297 9.57969 21.3578 9.03125C21.1422 8.59062 20.7484 8.1875 20.425 8.075C20.1391 7.97656 19.5859 7.97656 19.3984 8.07969ZM20.2047 8.9375C20.3969 9.05469 20.5703 9.31719 20.725 9.72031C20.8328 10.0109 20.8469 10.1234 20.8703 11.0094C20.8984 11.9516 20.9031 11.9797 21.0109 12.0969L21.1234 12.2187H22.8531C24.0813 12.2187 24.6156 12.2328 24.6859 12.275C24.9203 12.3969 24.9719 12.6359 24.8078 12.8469C24.7141 12.9688 24.7094 12.9688 24.0484 12.9688C23.2609 12.9688 23.0594 13.0109 22.9609 13.2031C22.8766 13.3672 22.8719 13.4422 22.9469 13.6016C23.0453 13.8219 23.1953 13.8594 23.9688 13.8594C24.6578 13.8594 24.6813 13.8641 24.7891 13.9766C24.8547 14.0375 24.9062 14.1406 24.9062 14.2062C24.9062 14.5531 24.7609 14.6094 23.875 14.6094H23.1625L23.0266 14.7453C22.8578 14.9187 22.8484 15.1156 23.0031 15.2984C23.1156 15.425 23.1297 15.4297 23.7063 15.4531C24.2125 15.4719 24.3063 15.4906 24.3859 15.5703C24.5453 15.7297 24.5547 15.8891 24.4141 16.0531L24.2875 16.2031H23.8094C23.5422 16.2031 23.2609 16.2266 23.1766 16.2547C23.0312 16.3062 22.8906 16.4984 22.8906 16.6484C22.8906 16.7984 23.0312 16.9906 23.1766 17.0422C23.2609 17.0703 23.4531 17.0937 23.6031 17.0937C23.8328 17.0937 23.8984 17.1125 23.9922 17.2109C24.1516 17.3656 24.1422 17.5391 23.9734 17.7078L23.8328 17.8437L21.2359 17.8344L18.6438 17.8203L18.4703 17.7031C18.3766 17.6422 18.2594 17.5109 18.2078 17.4172C18.1141 17.2531 18.1094 17.1734 18.1094 15.4812V13.7141L18.4797 13.3531C18.8828 12.9547 19.0516 12.6734 19.2484 12.0547C19.4969 11.2531 19.7031 10.0203 19.7031 9.29375C19.7031 9.08281 19.7172 8.89062 19.7359 8.87656C19.7969 8.81094 20.0594 8.84844 20.2047 8.9375ZM17.0406 13.4891C17.2516 13.6016 17.2656 13.7422 17.2656 15.6406C17.2656 17.5859 17.2516 17.7031 17.0078 17.7969C16.8297 17.8625 15.2219 17.8578 15.0953 17.7875C14.875 17.675 14.8797 17.6891 14.8797 15.6406C14.8797 13.6016 14.875 13.6156 15.0859 13.4937C15.2125 13.4234 16.9047 13.4187 17.0406 13.4891Z" fill="white"/>
<path d="M11.7215 18.7117C10.3574 18.9695 9.19961 20.071 8.87617 21.4117C8.74961 21.946 8.74961 22.7148 8.87617 23.2117C9.22773 24.5804 10.3105 25.607 11.7027 25.8882C12.1574 25.982 12.959 25.9538 13.3996 25.8367C15.1059 25.3726 16.2684 23.6523 16.0527 21.9085C15.898 20.6335 15.1715 19.5929 14.0559 19.0398C13.8262 18.9273 13.5074 18.8007 13.3527 18.7585C12.9402 18.6507 12.1621 18.6273 11.7215 18.7117ZM13.2777 19.6492C14.1637 19.9304 14.8949 20.7132 15.134 21.6273C15.223 21.9742 15.223 22.6257 15.134 22.9773C14.8762 23.9851 14.0934 24.7538 13.0574 25.021C12.6074 25.1335 12.2184 25.1335 11.7637 25.0163C11.2387 24.8851 10.873 24.6742 10.4652 24.2663C9.5793 23.3945 9.37773 22.1804 9.93086 21.0554C10.2262 20.4507 10.7605 19.9632 11.4168 19.7054C12.0262 19.4617 12.6215 19.4429 13.2777 19.6492Z" fill="white"/>
<path d="M10.9141 21.1947C10.825 21.2791 10.7969 21.3588 10.7969 21.4994C10.7969 21.8978 11.2188 22.0666 11.5047 21.7853C11.6781 21.6119 11.6828 21.415 11.5188 21.2228C11.3594 21.0306 11.0875 21.0166 10.9141 21.1947Z" fill="white"/>
<path d="M13.3422 21.1909C13.2391 21.28 13.2109 21.3409 13.2109 21.5003C13.2109 21.6596 13.2391 21.7206 13.3422 21.8096C13.5719 22.0065 13.8953 21.9409 14.0078 21.6737C14.1906 21.2378 13.6984 20.8862 13.3422 21.1909Z" fill="white"/>
<path d="M10.9422 23.0746C10.825 23.173 10.7969 23.2293 10.7969 23.3886C10.7969 23.5527 10.825 23.6043 11.0125 23.7871C11.275 24.0402 11.7109 24.2511 12.1094 24.3215C12.6906 24.4199 13.3703 24.2136 13.8063 23.7918C13.9938 23.6136 14.0313 23.5527 14.0313 23.4121C14.0313 23.1777 13.9938 23.1027 13.8391 23.023C13.6328 22.9152 13.4922 22.9386 13.2719 23.1261C12.9906 23.3605 12.7141 23.473 12.4188 23.473C12.1141 23.473 11.8938 23.3886 11.5844 23.1402C11.3031 22.9199 11.1438 22.9011 10.9422 23.0746Z" fill="white"/>
<path d="M25.159 19.1328C24.2965 19.3672 23.6121 20.0562 23.3871 20.9234C23.298 21.2656 23.298 21.9078 23.3871 22.2875C23.7293 23.7312 25.0699 25.0719 27.2871 26.1828C27.5027 26.2859 27.7184 26.375 27.7699 26.375C27.9293 26.375 29.0215 25.7984 29.6262 25.3953C31.0418 24.4578 31.8949 23.4219 32.1527 22.3344C32.2324 21.9969 32.2418 21.2469 32.1715 20.9375C31.9746 20.075 31.1777 19.2969 30.3105 19.1141C29.5324 18.9547 28.623 19.1609 27.9902 19.6437L27.7699 19.8125L27.5496 19.6437C26.898 19.1469 25.9043 18.9359 25.159 19.1328ZM26.284 19.9766C26.6824 20.0797 26.9027 20.2062 27.259 20.5437C27.5449 20.8156 27.5965 20.8438 27.7746 20.8438C27.948 20.8438 27.9996 20.8156 28.2809 20.5484C29.1293 19.7516 30.2543 19.7 30.934 20.4266C31.2668 20.7828 31.3512 21.0125 31.3559 21.5703C31.3559 22.1141 31.2809 22.3953 31.0043 22.8594C30.5168 23.6844 29.434 24.5984 28.1777 25.25L27.7746 25.4609L27.5027 25.3203C26.5371 24.8234 25.7027 24.2188 25.1215 23.6C24.7184 23.1734 24.5027 22.85 24.3105 22.3812C24.2074 22.1328 24.1887 22.0156 24.184 21.6172C24.184 21.2094 24.198 21.1156 24.3059 20.8906C24.6668 20.1125 25.4449 19.7562 26.284 19.9766Z" fill="white"/>
<path d="M25.4492 20.7461C25.0977 20.9055 24.8774 21.2852 24.9242 21.6508C24.957 21.8805 25.0649 22.007 25.2617 22.0445C25.5055 22.0867 25.6977 21.9648 25.7586 21.7117C25.7961 21.5664 25.8383 21.5008 25.8899 21.5008C26.0305 21.5008 26.1758 21.2992 26.1758 21.1164C26.1758 20.882 26.1383 20.807 25.9836 20.7273C25.8102 20.6336 25.6789 20.6383 25.4492 20.7461Z" fill="white"/>
<path d="M18.3156 19.4851C18.0578 19.5883 18.0625 19.5461 18.0625 22.1242V24.5055L18.1797 24.618C18.3203 24.7633 18.6109 24.7773 18.7703 24.6461L18.8828 24.557L18.8969 22.143L18.9109 19.7289L18.8031 19.607C18.6859 19.4711 18.4703 19.4195 18.3156 19.4851Z" fill="white"/>
<path d="M21.5781 19.4702C21.5406 19.4843 21.4609 19.5405 21.4047 19.5921L21.2969 19.6858V22.0952V24.5046L21.4141 24.6171C21.5266 24.7343 21.7563 24.7718 21.9297 24.7062C22.1313 24.6265 22.1406 24.5374 22.1406 22.0671V19.7233L22.0375 19.6062C21.9297 19.4843 21.7094 19.4187 21.5781 19.4702Z" fill="white"/>
<path d="M19.8933 20.7178C19.6589 20.835 19.6589 20.8396 19.673 23.3662L19.6823 25.7287L19.8136 25.8412C19.9917 25.9912 20.2355 25.9912 20.3855 25.8365L20.5026 25.724V23.3334C20.5026 22.0209 20.4886 20.91 20.4745 20.8678C20.4417 20.7834 20.2167 20.6568 20.0948 20.6568C20.048 20.6568 19.9589 20.685 19.8933 20.7178Z" fill="white"/>
<path d="M18.1797 25.6486L18.0625 25.7611V26.9471C18.0672 28.1893 18.0719 28.2221 18.2828 28.3346C18.4563 28.4283 18.625 28.4002 18.7703 28.2502L18.9109 28.1143L18.8969 26.9096C18.8828 25.7143 18.8828 25.7096 18.7703 25.6205C18.6109 25.4893 18.3203 25.5033 18.1797 25.6486Z" fill="white"/>
<path d="M21.4141 25.6484L21.2969 25.7609V26.9468C21.3016 28.189 21.3063 28.2218 21.5172 28.3343C21.6906 28.4281 21.8594 28.3999 22.0047 28.2546L22.1406 28.1187V26.9843C22.1406 25.6015 22.1172 25.5312 21.6906 25.5312C21.5781 25.5312 21.4891 25.5687 21.4141 25.6484Z" fill="white"/>
<path d="M10.5578 26.3884C10.3797 26.5243 10.375 26.604 10.375 28.5868C10.375 30.729 10.3703 30.6775 10.675 30.7806C10.8625 30.8415 11.0359 30.7853 11.1438 30.6306C11.2094 30.5368 11.2188 30.2837 11.2188 28.54V26.5571L11.1016 26.4446C10.975 26.3134 10.6891 26.2853 10.5578 26.3884Z" fill="white"/>
<path d="M13.7922 26.3885C13.6141 26.5244 13.6094 26.6041 13.6094 28.5963V30.5416L13.7172 30.6681C13.8766 30.851 14.1859 30.8556 14.3406 30.6728L14.4531 30.5416V28.5494V26.5572L14.3359 26.4447C14.2094 26.3135 13.9234 26.2853 13.7922 26.3885Z" fill="white"/>
<path d="M25.8672 26.4453L25.75 26.5578V28.5687V30.5796L25.8578 30.6734C26.0078 30.814 26.1437 30.8421 26.3266 30.7671C26.5937 30.6546 26.5984 30.6265 26.5844 28.489L26.5703 26.5531L26.4391 26.4406C26.2609 26.2906 26.0172 26.2906 25.8672 26.4453Z" fill="white"/>
<path d="M29.1038 26.44C29.0428 26.501 28.9819 26.6228 28.9631 26.7072C28.9491 26.7963 28.9397 27.6916 28.9491 28.6994C28.9631 30.4619 28.9678 30.5416 29.0569 30.64C29.1975 30.7947 29.3475 30.8369 29.535 30.776C29.835 30.6775 29.835 30.6728 29.821 28.5025L29.8069 26.5525L29.6756 26.44C29.4975 26.29 29.2538 26.29 29.1038 26.44Z" fill="white"/>
<path d="M19.9533 26.7583C19.6721 26.8333 19.6533 26.9364 19.6674 28.2208C19.6815 29.4958 19.6908 29.5286 20.0096 29.5895C20.183 29.6224 20.4268 29.5192 20.4737 29.3974C20.4877 29.3552 20.5018 28.788 20.5018 28.1364C20.5018 26.9692 20.5018 26.9505 20.3987 26.8567C20.2627 26.7349 20.1408 26.7067 19.9533 26.7583Z" fill="white"/>
<path d="M12.1375 27.6446L12.0156 27.7384V29.7681V31.7977L12.1234 31.8962C12.2453 32.0134 12.55 32.0368 12.6766 31.9384C12.8547 31.8024 12.8594 31.7227 12.8594 29.754V27.8368L12.7375 27.6915C12.5875 27.5134 12.3297 27.4899 12.1375 27.6446Z" fill="white"/>
<path d="M27.5406 27.5797C27.5078 27.5938 27.4516 27.6641 27.4141 27.7344C27.3531 27.8469 27.3438 28.1891 27.3438 29.8203V31.7703L27.4609 31.8828C27.6203 32.0469 27.9109 32.0469 28.0703 31.8828L28.1875 31.7703V29.7734V27.7766L28.0703 27.6641C27.9625 27.5516 27.7094 27.5094 27.5406 27.5797Z" fill="white"/>
</g>
<defs>
<linearGradient id="paint0_linear_118_2888" x1="40.5" y1="20" x2="0.5" y2="20" gradientUnits="userSpaceOnUse">
<stop stop-color="#5D0076"/>
<stop offset="1" stop-color="#9D01C8"/>
</linearGradient>
<clipPath id="clip0_118_2888">
<rect width="24" height="24" fill="white" transform="translate(8.5 8)"/>
</clipPath>
</defs>
</svg>
