<svg width="40" height="40" viewBox="0 0 40 40" fill="none" xmlns="http://www.w3.org/2000/svg">
<rect x="0.5" y="0.5" width="39" height="39" rx="19.5" fill="url(#paint0_linear_118_3284)" stroke="url(#paint1_linear_118_3284)"/>
<g clip-path="url(#clip0_118_3284)">
<path d="M24.1723 9.10627C23.9192 9.3172 21.538 12.2141 21.4958 12.3594C21.4348 12.5703 21.5239 12.8188 21.6973 12.9219C21.8239 13.0016 21.9364 13.0156 22.4239 13.0156H22.9958V14.8719V16.7281L23.1317 16.8641L23.2677 17H24.4958H25.7239L25.8598 16.8641L25.9958 16.7281V14.8719V13.0156H26.5723C27.0551 13.0156 27.1676 13.0016 27.2942 12.9219C27.4676 12.8188 27.5426 12.6031 27.4911 12.3734C27.4723 12.2703 27.0458 11.7266 26.2114 10.7234C25.5223 9.89845 24.8989 9.17189 24.8192 9.10627C24.7208 9.02189 24.6223 8.98439 24.4958 8.98439C24.3692 8.98439 24.2708 9.02189 24.1723 9.10627ZM25.1895 11.1641L25.8505 11.9609L25.5551 11.9844C25.3911 11.9984 25.2223 12.0359 25.1801 12.0734C24.9692 12.2469 24.9645 12.3078 24.9645 14.1875V15.9688H24.4958H24.027V14.1875C24.027 12.3078 24.0223 12.2469 23.8114 12.0734C23.7692 12.0359 23.5958 11.9984 23.4317 11.9844L23.1317 11.9609L23.802 11.1547C24.1723 10.7094 24.4864 10.3485 24.5005 10.3578C24.5192 10.3625 24.8286 10.7234 25.1895 11.1641Z" fill="white"/>
<path d="M26.643 13.6203L26.4883 13.7562L26.4742 15.6125L26.4602 17.4687H25.9117C25.2789 17.4687 25.1102 17.5343 25.0071 17.8109L24.9508 17.9703L24.243 17.9984C23.1977 18.0406 22.4571 18.2281 21.543 18.6875C20.2821 19.3203 19.2368 20.3797 18.6414 21.6312L18.4774 21.964L15.3368 21.9781L12.1915 21.9922L11.9711 22.1234C11.8258 22.2078 11.704 22.3297 11.6196 22.475C11.4977 22.6812 11.4883 22.7328 11.4743 23.3375C11.4555 23.9421 11.4508 23.9843 11.3665 23.9843C11.2212 23.9843 10.9399 24.1203 10.7899 24.2562C10.5368 24.4953 10.4805 24.6921 10.4805 25.3765V25.9906L10.0446 26.0093C9.65084 26.0234 9.58522 26.0375 9.41178 26.1593C9.2899 26.2437 9.17272 26.3796 9.09772 26.5296C8.98522 26.7546 8.98053 26.8109 8.98053 27.5C8.98053 28.189 8.98522 28.2453 9.09772 28.4703C9.17272 28.6203 9.2899 28.7609 9.41178 28.8406C9.59928 28.9718 9.62272 28.9765 10.2977 28.9906L10.9915 29.0046L11.0055 29.6984C11.0196 30.3734 11.0243 30.3968 11.1555 30.5843C11.2352 30.7062 11.3758 30.8234 11.5258 30.8984L11.7649 31.0156H16.4993C21.8196 31.0156 21.4446 31.039 21.768 30.6687L21.9227 30.4906L22.1664 30.589C22.3024 30.6406 22.6118 30.739 22.8555 30.7999C25.8039 31.564 28.8977 30.1765 30.2758 27.4671C31.4289 25.1984 31.1946 22.5406 29.6524 20.5156L29.3852 20.1593L30.1117 19.2968C30.5102 18.8187 30.8758 18.364 30.9227 18.289C31.0586 18.0734 31.0399 17.8297 30.8758 17.6468L30.7399 17.4922L30.1258 17.4781L29.5117 17.4593V15.6312V13.8031L29.3524 13.6437L29.193 13.4844H27.993H26.793L26.643 13.6203ZM28.4805 16.3297C28.4805 18.5656 28.4571 18.4765 29.1227 18.5093L29.3664 18.5234L28.7008 19.3297C28.3352 19.7703 28.0211 20.1359 28.0024 20.1359C27.9883 20.1406 27.6649 19.7703 27.2899 19.3203L26.6055 18.5H26.9149C27.1914 18.5 27.2336 18.4859 27.3602 18.364L27.4961 18.2281V16.3719V14.5156H27.9883H28.4805V16.3297ZM25.4289 19.114L25.7711 19.1703L26.6008 20.1593C27.7399 21.5234 27.7117 21.5 28.0024 21.5C28.2274 21.5 28.2461 21.4906 28.4711 21.2468L28.7008 20.989L28.9211 21.289C30.2571 23.1078 30.3133 25.6203 29.0571 27.514C28.5602 28.264 27.7024 29.0187 26.9149 29.3984C26.0664 29.8062 25.4149 29.9609 24.4961 29.9609C21.8758 29.9609 19.6961 28.1703 19.1243 25.5546C19.0118 25.039 19.0118 23.9609 19.1243 23.4453C19.368 22.3343 19.8414 21.4531 20.6196 20.6656C21.8899 19.3718 23.643 18.8093 25.4289 19.114ZM18.0977 23.2203C18.079 23.3468 18.0508 23.5625 18.0321 23.7031L18.004 23.9609L15.2524 23.975L12.4961 23.9843V23.4921V23H15.3133H18.1305L18.0977 23.2203ZM18.0321 25.2968C18.0508 25.4375 18.079 25.6531 18.0977 25.775L18.1305 26H14.8211H11.5118V25.5078V25.0156L14.7602 25.025L18.004 25.039L18.0321 25.2968ZM18.7164 27.5L18.9555 27.9687H14.4836H10.0118V27.5V27.0312H14.2446H18.4727L18.7164 27.5ZM19.9539 29.1687C20.0383 29.2625 20.3008 29.4828 20.5258 29.6609L20.943 29.9843H16.4852H12.0274V29.4921V29H15.9086H19.7899L19.9539 29.1687Z" fill="white"/>
<path d="M24.1399 21.1438C23.9899 21.2938 23.9805 21.3219 23.9805 21.6313V21.9547L23.7133 22.0109C22.9774 22.1563 22.4852 22.7516 22.4805 23.5016C22.4805 24.0828 22.7993 24.6078 23.3149 24.8609C23.568 24.9828 23.629 24.9922 24.3555 25.0156C25.1946 25.0391 25.293 25.0672 25.4149 25.3016C25.5508 25.5641 25.3633 25.9063 25.054 25.9719C24.9696 25.9859 24.4352 26 23.854 26C23.2212 26 22.7665 26.0188 22.7102 26.0469C22.504 26.1594 22.4102 26.5813 22.5555 26.7875C22.6915 26.9844 22.8602 27.0313 23.4415 27.0313H23.9805V27.3641C23.9805 27.6781 23.9899 27.7063 24.1399 27.8563C24.2712 27.9875 24.3368 28.0156 24.4962 28.0156C24.6555 28.0156 24.7212 27.9875 24.8524 27.8563C25.0024 27.7063 25.0118 27.6781 25.0118 27.3688V27.0406L25.2133 27.0078C25.7055 26.9281 26.1602 26.6 26.3711 26.1641C26.5305 25.8313 26.554 25.3109 26.4227 24.9641C26.2868 24.6125 26.0102 24.3031 25.6774 24.1391C25.4243 24.0172 25.3633 24.0078 24.6368 23.9844C23.7977 23.9609 23.6993 23.9328 23.5774 23.6984C23.4415 23.4359 23.629 23.0938 23.9383 23.0281C24.0227 23.0141 24.5571 23 25.1383 23C25.7711 23 26.2258 22.9813 26.2821 22.9531C26.4883 22.8406 26.5821 22.4188 26.4368 22.2125C26.3008 22.0156 26.1321 21.9688 25.5508 21.9688H25.0118V21.636C25.0118 21.3219 25.0024 21.2938 24.8524 21.1438C24.7212 21.0125 24.6555 20.9844 24.4962 20.9844C24.3368 20.9844 24.2712 21.0125 24.1399 21.1438Z" fill="white"/>
</g>
<defs>
<linearGradient id="paint0_linear_118_3284" x1="15.6481" y1="38.0303" x2="48.0002" y2="21.1707" gradientUnits="userSpaceOnUse">
<stop stop-color="#016DEA"/>
<stop offset="1" stop-color="#FA0101"/>
</linearGradient>
<linearGradient id="paint1_linear_118_3284" x1="0" y1="20" x2="40" y2="20" gradientUnits="userSpaceOnUse">
<stop stop-color="#FA0101"/>
<stop offset="1" stop-color="#016DEA"/>
</linearGradient>
<clipPath id="clip0_118_3284">
<rect width="24" height="24" fill="white" transform="translate(8.00006 8)"/>
</clipPath>
</defs>
</svg>
