<svg width="40" height="40" viewBox="0 0 40 40" fill="none" xmlns="http://www.w3.org/2000/svg">
<rect x="0.5" y="0.5" width="39" height="39" rx="19.5" fill="url(#paint0_linear_118_3247)" stroke="url(#paint1_linear_118_3247)"/>
<path d="M26 16C26 14.4087 25.3679 12.8826 24.2426 11.7574C23.1174 10.6321 21.5913 10 20 10C18.4087 10 16.8826 10.6321 15.7574 11.7574C14.6321 12.8826 14 14.4087 14 16C14 23 11 25 11 25H29C29 25 26 23 26 16Z" stroke="white" stroke-width="2" stroke-linecap="round" stroke-linejoin="round"/>
<path d="M21.73 29C21.5542 29.3031 21.3018 29.5547 20.9982 29.7295C20.6946 29.9044 20.3504 29.9965 20 29.9965C19.6496 29.9965 19.3054 29.9044 19.0018 29.7295C18.6981 29.5547 18.4458 29.3031 18.27 29" stroke="white" stroke-width="2" stroke-linecap="round" stroke-linejoin="round"/>
<defs>
<linearGradient id="paint0_linear_118_3247" x1="15.6481" y1="38.0303" x2="48.0002" y2="21.1707" gradientUnits="userSpaceOnUse">
<stop stop-color="#016DEA"/>
<stop offset="1" stop-color="#FA0101"/>
</linearGradient>
<linearGradient id="paint1_linear_118_3247" x1="0" y1="20" x2="40" y2="20" gradientUnits="userSpaceOnUse">
<stop stop-color="#FA0101"/>
<stop offset="1" stop-color="#016DEA"/>
</linearGradient>
</defs>
</svg>
