<svg width="40" height="40" viewBox="0 0 40 40" fill="none" xmlns="http://www.w3.org/2000/svg">
<path d="M0.5 20C0.5 9.23045 9.23045 0.5 20 0.5C30.7696 0.5 39.5 9.23045 39.5 20C39.5 30.7696 30.7696 39.5 20 39.5C9.23045 39.5 0.5 30.7696 0.5 20Z" fill="url(#paint0_linear_118_3256)" stroke="url(#paint1_linear_118_3256)"/>
<g clip-path="url(#clip0_118_3256)">
<path d="M16.8125 8.02823C14.3281 8.33292 12.2234 9.28917 10.6109 10.8548C9.30782 12.1157 8.50626 13.5314 8.12657 15.2423C8.03751 15.6548 8.02345 15.847 8.02814 16.8126C8.02814 17.7735 8.0422 17.9751 8.13126 18.3782C8.36564 19.4235 8.77814 20.4126 9.32657 21.2329L9.62189 21.6782L9.5422 22.1517C9.42501 22.836 9.23751 23.5485 9.00314 24.2189C8.76876 24.8798 8.74064 25.1892 8.88595 25.4751C9.06407 25.8173 9.36407 26.0001 9.75782 26.0001C10.3203 26.0001 11.675 25.5689 12.7672 25.0392C13.5266 24.6735 13.6531 24.6501 13.6953 24.8704C13.8641 25.7095 14.1969 26.586 14.6094 27.2845C16.8453 31.072 22.1703 32.6704 26.6375 30.8939L26.9281 30.7767L27.4109 31.0345C28.4375 31.5782 29.8391 32.0282 30.3875 31.9907C30.7297 31.9673 30.9594 31.822 31.1094 31.5314C31.2547 31.2501 31.2266 30.9876 30.9969 30.2939C30.7813 29.661 30.575 28.7985 30.5188 28.3345L30.4859 28.072L30.7813 27.636C31.1703 27.0548 31.4094 26.5673 31.625 25.911C31.9344 24.9876 31.9766 24.697 31.9766 23.586C31.9766 22.7235 31.9625 22.5407 31.8688 22.1095C31.6578 21.1767 31.2031 20.1454 30.6547 19.3814C30.1203 18.6267 29.1875 17.736 28.3813 17.2157L28.0297 16.9814L28.0016 16.3954C27.9078 14.3657 27.0594 12.5282 25.5125 10.972C24.0406 9.50011 22.1609 8.54855 19.9063 8.13605C19.4656 8.05636 19.1469 8.03292 18.1719 8.02355C17.5156 8.01417 16.9016 8.01886 16.8125 8.02823ZM19.6953 8.95636C20.7266 9.14855 21.5328 9.40636 22.3672 9.80011C24.875 10.9907 26.6 13.1142 27.0594 15.5704C27.1813 16.2032 27.1813 17.4548 27.0594 18.0548C26.3469 21.6689 23.0422 24.3595 18.8516 24.7392C17.2531 24.8845 15.3266 24.5704 13.9297 23.9376C13.4375 23.7173 13.4703 23.7126 12.7297 24.097C11.8953 24.5282 11.2438 24.7907 10.4891 24.997C9.84689 25.1704 9.69689 25.1892 9.65939 25.0907C9.64532 25.0532 9.7297 24.7439 9.8422 24.397C10.0953 23.6517 10.2641 22.986 10.3906 22.236C10.5219 21.4485 10.5219 21.4204 10.2688 21.0782C9.77189 20.3985 9.42501 19.7282 9.18126 18.9689C8.91407 18.1251 8.8672 17.811 8.8672 16.7892C8.8672 15.7392 8.9422 15.2751 9.2422 14.4454C9.80001 12.8939 10.9531 11.4689 12.4531 10.461C13.6063 9.68761 15.2094 9.10636 16.7656 8.89073C17.2672 8.82511 19.2078 8.8673 19.6953 8.95636ZM28.5313 18.3876C28.9813 18.7439 29.6891 19.4985 30.0125 19.9767C30.5703 20.797 30.9359 21.6923 31.0906 22.6204C31.2125 23.3564 31.1656 24.3876 30.9781 25.1095C30.7531 25.9814 30.3922 26.736 29.8484 27.472C29.7172 27.6501 29.6094 27.8423 29.6094 27.9032C29.6094 28.3767 29.8953 29.6892 30.1813 30.5376C30.2844 30.8517 30.3594 31.1235 30.3453 31.1423C30.2703 31.2173 29.15 30.8845 28.4656 30.5892C28.2313 30.486 27.8328 30.2845 27.5797 30.1392C27.3219 29.9939 27.0594 29.8767 26.9891 29.8767C26.9234 29.8767 26.6469 29.9657 26.3844 30.0735C25.2453 30.5376 24.125 30.7532 22.8125 30.7532C21.8188 30.7579 21.3031 30.697 20.4453 30.4767C18.0406 29.8626 16.1516 28.4376 15.1297 26.4689C14.9703 26.1642 14.5906 25.1564 14.6234 25.1282C14.6281 25.1189 14.7828 25.1564 14.9609 25.2079C18.6406 26.2439 22.7328 25.2923 25.3344 22.7892C25.9531 22.1939 26.2906 21.7954 26.7031 21.172C27.2516 20.3329 27.6781 19.297 27.8563 18.3689L27.9406 17.9423L28.0813 18.0454C28.1609 18.097 28.3625 18.2517 28.5313 18.3876Z" fill="white"/>
<path d="M12.1344 14.8862C10.7375 15.369 10.325 17.1737 11.3703 18.2237C12.1625 19.0159 13.4375 19.0206 14.225 18.2331C15.2797 17.1784 14.8578 15.3737 13.4469 14.8862C13.1047 14.769 12.4766 14.769 12.1344 14.8862ZM13.2266 15.7065C13.4703 15.8097 13.7984 16.1378 13.8875 16.3675C13.9391 16.5128 13.9578 16.6675 13.9437 16.8784C13.8969 17.619 13.1984 18.1253 12.5 17.9237C11.4453 17.6143 11.3375 16.18 12.3359 15.73C12.5656 15.6268 13.0016 15.6128 13.2266 15.7065Z" fill="white"/>
<path d="M17.3375 14.8858C15.936 15.3686 15.5188 17.1686 16.5641 18.2139C17.5625 19.2077 19.1985 18.9358 19.8172 17.6796C19.9719 17.3608 19.9766 17.3374 19.9766 16.7889C19.9766 16.2639 19.9672 16.2077 19.8406 15.9452C19.6813 15.6217 19.325 15.2233 19.0438 15.0592C18.5844 14.7921 17.8344 14.7124 17.3375 14.8858ZM18.3781 15.6967C18.636 15.7717 19.025 16.1608 19.1 16.4186C19.3063 17.1171 18.9078 17.8014 18.2094 17.9467C17.6516 18.0639 17.0469 17.6889 16.8828 17.1171C16.7844 16.7842 16.8172 16.5405 17 16.2171C17.2813 15.7296 17.8063 15.528 18.3781 15.6967Z" fill="white"/>
<path d="M22.55 14.8812C21.4016 15.2797 20.8625 16.5594 21.3781 17.6797C21.5328 18.0219 21.9781 18.4672 22.3156 18.6219C23.3422 19.0906 24.5281 18.6781 25.0156 17.6844C25.1563 17.4031 25.1797 17.3047 25.1938 16.9297C25.2219 16.2734 25.0813 15.8656 24.6734 15.4203C24.4391 15.1672 24.1203 14.9656 23.8016 14.8719C23.4594 14.7734 22.8547 14.7781 22.55 14.8812ZM23.5672 15.6969C23.825 15.7719 24.1203 16.0391 24.2469 16.3156C24.5094 16.8781 24.2984 17.5156 23.7594 17.8109C23.4453 17.9797 23.2063 18.0125 22.8875 17.9187C22.3109 17.75 21.9359 17.1547 22.0531 16.5875C22.1984 15.8937 22.8875 15.4906 23.5672 15.6969Z" fill="white"/>
</g>
<defs>
<linearGradient id="paint0_linear_118_3256" x1="15.6481" y1="38.0303" x2="48.0002" y2="21.1707" gradientUnits="userSpaceOnUse">
<stop stop-color="#016DEA"/>
<stop offset="1" stop-color="#FA0101"/>
</linearGradient>
<linearGradient id="paint1_linear_118_3256" x1="0" y1="20" x2="40" y2="20" gradientUnits="userSpaceOnUse">
<stop stop-color="#FA0101"/>
<stop offset="1" stop-color="#016DEA"/>
</linearGradient>
<clipPath id="clip0_118_3256">
<rect width="24" height="24" fill="white" transform="translate(8 8)"/>
</clipPath>
</defs>
</svg>
